<?xml version='1.0' encoding='utf-8'?>
<svg xmlns="http://www.w3.org/2000/svg" width="91.44mm" height="91.44mm" version="1.1" style="shape-rendering:geometricPrecision; text-rendering:geometricPrecision; image-rendering:optimizeQuality; fill-rule:evenodd; clip-rule:evenodd" viewBox="0 0 9144 9144"> <defs> <style type="text/css">  .fil0 {fill:#F0F0F0} .fil1 {fill:#011627;fill-rule:nonzero}  </style> </defs> <g id="Layer_x0020_1"> <metadata id="CorelCorpID_0Corel-Layer"/> <g id="_2744712243168"> <polygon class="fil0" points="0,0 9144,0 9144,9144 0,9144 "/> <path class="fil1" d="M4010 6593c48,0 88,40 88,88 0,49 -40,89 -88,89l-1555 0c-48,0 -88,-40 -88,-89 0,-563 54,-901 312,-1159 243,-244 660,-399 1383,-595l0 -157c-241,-125 -422,-426 -506,-773 -52,-214 -68,-448 -38,-669 30,-225 108,-438 242,-607 173,-219 438,-362 812,-362 374,0 639,143 812,362 134,169 212,382 242,607 30,221 14,455 -38,669 -84,347 -265,648 -506,773l0 157c723,196 1140,351 1383,595 258,258 312,596 312,1159 0,49 -40,89 -88,89l-1555 0c-48,0 -88,-40 -88,-89 0,-48 40,-88 88,-88l1466 0c-5,-462 -57,-744 -260,-947 -222,-223 -634,-369 -1364,-565 -40,-9 -70,-44 -70,-87l0 -281c0,-35 21,-68 56,-82 212,-83 377,-354 455,-675 47,-194 62,-405 35,-604 -26,-196 -92,-379 -206,-522 -141,-178 -360,-295 -674,-295 -314,0 -533,117 -674,295 -114,143 -180,326 -206,522 -27,199 -12,410 35,604 77,319 241,588 451,673 35,12 60,45 60,84l0 281c0,39 -26,75 -65,85 -733,197 -1146,344 -1369,567 -203,203 -255,485 -260,947l1466 0zm330 -1392l464 0c49,0 88,40 88,89l0 375 376 0c48,0 88,39 88,88l0 465c0,48 -40,88 -88,88l-376 0 0 375c0,49 -39,88 -88,88l-464 0c-49,0 -88,-39 -88,-88l0 -375 -376 0c-48,0 -88,-40 -88,-88l0 -465c0,-49 40,-88 88,-88l376 0 0 -375c0,-49 39,-89 88,-89zm376 177l-288 0 0 375c0,49 -40,88 -88,88l-376 0 0 288 376 0c48,0 88,40 88,89l0 375 288 0 0 -375c0,-49 40,-89 88,-89l376 0 0 -288 -376 0c-48,0 -88,-39 -88,-88l0 -375z"/> </g> </g> </svg>