<?xml version="1.0" encoding="UTF-8"?>
<!-- Generator: Adobe Illustrator 19.1.0, SVG Export Plug-In . SVG Version: 6.00 Build 0)  -->
<svg xmlns="http://www.w3.org/2000/svg" xmlns:xlink="http://www.w3.org/1999/xlink" xmlns:dc="http://purl.org/dc/elements/1.1/" xmlns:cc="http://creativecommons.org/ns#" xmlns:rdf="http://www.w3.org/1999/02/22-rdf-syntax-ns#" version="1.1" id="DESIGNS" x="0px" y="0px" width="32px" height="32px" viewBox="0 0 32 32" style="enable-background:new 0 0 32 32;" xml:space="preserve">
<title property="dc:title">to adjust</title><desc property="dc:description">An icon for "adjust" from the Lines and Angles series on to [icon]. Downloaded from http://www.toicon.com/icons/lines-and-angles_adjust by 127.0.0.1 on 2017-07-10. Licensed CC-BY, see http://toicon.com/license/ for details.</desc>
<path class="linesandangles_een" d="M26,21h-6v2H4v2h16v2h6v-2h2v-2h-2V21z M24,25h-2v-2h2V25z M12,13H6v2H4v2h2v2h6v-2h16v-2H12V13  z M10,17H8v-2h2V17z M22,7V5h-6v2H4v2h12v2h6V9h6V7H22z M20,9h-2V7h2V9z" style="fill: #111918;"/>
<metadata><work rdf:about=""><format>image/svg+xml</format><type rdf:resource="http://purl.org/dc/dcmitype/StillImage"/><license rdf:resource="http://creativecommons.org/licenses/by/4.0/"/><attributionname>Shannon E Thomas</attributionname><attributionurl>http://www.toicon.com/icons/lines-and-angles_adjust</attributionurl></work></metadata></svg>
