<?xml version="1.0" encoding="UTF-8"?>
<svg width="800" height="800" version="1.1" viewBox="0 0 800.00001 800.00001" xmlns="http://www.w3.org/2000/svg">
 <path d="m405.58 147.84c-62.64 2.9e-4 -113.42 50.78-113.42 113.42-7.9e-4 62.641 50.779 113.42 113.42 113.42 62.641-2.8e-4 113.42-50.781 113.42-113.42-2.9e-4 -62.64-50.78-113.42-113.42-113.42zm101.84 224.55c-27.783 25.521-64.118 39.709-101.84 39.768-37.67-0.0685-73.953-14.225-101.71-39.688-56.326 37.29-90.605 102.8-90.701 173.35 0.0378 1.0127 0.0828 131.29 0.13476 132.3h384.59c0.0526-1.012 0.0982-131.29 0.13672-132.3-0.0421-70.546-34.272-136.09-90.57-173.43z" color="#000000" color-rendering="auto" image-rendering="auto" shape-rendering="auto" solid-color="#000000" style="isolation:auto;mix-blend-mode:normal"/>
</svg>
